<svg xmlns="http://www.w3.org/2000/svg" viewBox="0 0 224 225"><title>Asset 1</title><g id="Layer_2" data-name="Layer 2"><g id="Layer_1-2" data-name="Layer 1"><path d="M99,0h21c3.61.41,7.28.55,10.83,1.28C169.18,9.12,197.65,30.07,214,65.9,218.64,76,220.74,87.27,224,98v29a15.72,15.72,0,0,0-.79,2.34c-7.36,40.83-29.47,70.42-67.73,86.86-10.2,4.38-21.62,5.94-32.48,8.8H102c-3.27-.42-6.59-.62-9.82-1.3-37.81-7.91-65.75-28.86-82-64C5.42,149.4,3.32,137.92,0,127V98a9.31,9.31,0,0,0,.72-1.82c7.56-42.48,31-72.35,71.06-88.61C80.45,4.06,89.91,2.47,99,0ZM26.68,162.6c8.66-5.16,16.85-10.52,25.48-15,6.59-3.45,13.84-5.63,20.6-8.8,3.43-1.61,5.58-.92,8.3,1.49,9.22,8.17,19.56,13.26,32.49,12.86,12-.38,21.14-6,30-13.09,1.52-1.23,4.33-2.38,5.87-1.8,16.77,6.38,33.68,12.61,47.11,25.26C217.84,131,218,76.7,179.78,40.31,144,6.21,87.64,4.1,49,36.2,10.16,68.43,2.48,121.79,26.68,162.6Z"/><path d="M68.08,92.48c-.91-32.63,22-56,49.33-52.7,19.26,2.34,37,20.16,38.41,40.77,1.52,21.82-6.26,40.2-23,54.3-12.6,10.59-27.8,10.84-40.76.73C76,123.11,69.1,106,68.08,92.48Z"/></g></g></svg>